<?xml version="1.0" encoding="utf-8"?>
<!-- Generator: Adobe Illustrator 18.0.0, SVG Export Plug-In . SVG Version: 6.00 Build 0)  -->
<!DOCTYPE svg PUBLIC "-//W3C//DTD SVG 1.1//EN" "http://www.w3.org/Graphics/SVG/1.1/DTD/svg11.dtd">
<svg version="1.1" id="logo-horz" xmlns="http://www.w3.org/2000/svg" xmlns:xlink="http://www.w3.org/1999/xlink" x="0px" y="0px"
	 viewBox="0 0 340 100" enable-background="new 0 0 340 100" xml:space="preserve">
	 <style>
    path { fill: #FFFFFF; }
  </style>
<g>
	<g>
		<path d="M42,36.5c0.3,0.1,0.7-0.2,0.6-0.5c-0.7-2.9-3.3-5-6.4-5c-2.2,0-4.2,1.1-5.4,2.8c-0.2,0.3,0,0.7,0.4,0.7
			C34.5,34.4,38.5,35,42,36.5z"/>
		<path d="M26.4,33.5c3.6,0,6.6-2.9,6.6-6.6c0-3.6-2.9-6.6-6.6-6.6c-3.6,0-6.6,2.9-6.6,6.6
			C19.9,30.5,22.8,33.5,26.4,33.5z"/>
		<g>
			<path d="M82.7,57.3c-1.2-2.6-6.9-0.6-8.2-3.1c-1.4-2.5-3.7-5.4-7.6-7.3c-0.2-0.1-0.4-0.3-0.4-0.6
				c0-4.4,0.2-6.4-1-6.8c-1.9-0.6-6.5,1.8-11,6c-0.3,0.2-0.7,0.2-0.9-0.1c-1.8-2.3-4.4-5.1-8.8-7.6c-0.3-0.2-0.7-0.1-0.9,0.3l0,0.1
				c-0.1,0.3-0.5,0.4-0.8,0.3c-5.2-2.5-10.1-2.7-13.4-2.5c-0.4,0-0.7-0.3-0.7-0.6l0,0c0-0.4-0.3-0.7-0.7-0.6
				C13.9,36.4,3.8,48.4,3.8,62.2c0,6.6,3.3,12.1,8,16.2c0.1,0.1,0.2,0.2,0.2,0.3c1.1,4.2,3,9.2,4.1,10.3c1,1.1,7.7,1.4,9.2,0.4
				c0.7-0.5,1.5-7.4,5.1-7.4c2.7,0,9.3,0.1,12.2-0.1c4-0.3,5.2,6.4,6.1,7.3c1,0.9,8.4,1,9.3,0.1c0.8-0.8,2.8-7.9,3.3-9.7
				c0.1-0.2,0.3-0.4,0.5-0.4c7.1-1,20.3-9.3,21.6-13.5C84.3,62.8,83.3,58.6,82.7,57.3z"/>
		</g>
		<g>
			<path d="M43.8,31.2c5.9,0,10.6-4.7,10.6-10.6c0-5.9-4.8-10.6-10.6-10.6c-5.9,0-10.6,4.7-10.6,10.6
				C33.2,26.5,37.9,31.2,43.8,31.2z"/>
		</g>
	</g>
	<g>
		<path d="M98.7,27.2h7.3c1,0,1.7,0.8,1.7,1.7v23.1c0,2.3,1.9,2.3,3,1.2l10.1-10.5c0.3-0.3,0.8-0.5,1.2-0.5h7.8
			c1.6,0,2.3,1.9,1.2,3l-10.8,10.5c-0.6,0.6-0.7,1.5-0.3,2.2l13.2,21c0.7,1.2-0.1,2.7-1.5,2.7h-8.9c-0.6,0-1.2-0.3-1.5-0.9L113,65.9
			c-0.6-1-1.9-1.2-2.7-0.4l-2,2c-0.3,0.3-0.5,0.8-0.5,1.2v11.1c0,1-0.8,1.7-1.7,1.7h-7.3c-1,0-1.7-0.8-1.7-1.7V29
			C96.9,28,97.7,27.2,98.7,27.2z"/>
		<path d="M182.2,68.8c0.8,0,1.5,0.6,1.7,1.4c0.8,3.7,4.3,5.2,8.1,5.2c3.1,0,7.1-1.2,7.1-5c0-3.3-4.5-4.4-12.2-6.1
			c-6.2-1.4-12.5-3.6-12.5-10.5c0-10,8.7-12.6,17.1-12.6c7.9,0,15.3,2.5,17,10.5c0.2,1.1-0.6,2.1-1.7,2.1H200
			c-0.8,0-1.5-0.5-1.7-1.3c-0.8-3.2-3.7-4.1-7.2-4.1c-2.4,0-6,0.5-6,3.7c0,3.9,6.1,4.4,12.2,5.9c6.3,1.4,12.5,3.7,12.5,11
			c0,10.3-9,13.7-17.9,13.7c-8.5,0-16.8-3-18.3-11.8c-0.2-1.1,0.6-2,1.7-2H182.2z"/>
		<path d="M214.6,27.2h7.3c1,0,1.7,0.8,1.7,1.7v18.7h0.2c2.7-4.4,7.5-6.5,11.5-6.5c11.5,0,14.4,6.5,14.4,16.2v22.5
			c0,1-0.8,1.7-1.7,1.7h-7.3c-1,0-1.7-0.8-1.7-1.7V59.3c0-6.5-1.9-9.7-6.9-9.7c-5.9,0-8.4,3.3-8.4,11.3v18.9c0,1-0.8,1.7-1.7,1.7
			h-7.3c-1,0-1.7-0.8-1.7-1.7V29C212.9,28,213.7,27.2,214.6,27.2z"/>
		<path d="M273.1,41.2c12.4,0,20.4,8.2,20.4,20.8c0,12.5-8,20.7-20.4,20.7c-12.3,0-20.3-8.2-20.3-20.7
			C252.8,49.4,260.8,41.2,273.1,41.2z M273.1,74.5c7.4,0,9.6-6.3,9.6-12.5c0-6.3-2.2-12.6-9.6-12.6c-7.3,0-9.5,6.3-9.5,12.6
			C263.6,68.2,265.8,74.5,273.1,74.5z"/>
		<path d="M315.8,41.2c12.4,0,20.4,8.2,20.4,20.8c0,12.5-8,20.7-20.4,20.7c-12.3,0-20.3-8.2-20.3-20.7
			C295.5,49.4,303.5,41.2,315.8,41.2z M315.8,74.5c7.4,0,9.6-6.3,9.6-12.5c0-6.3-2.2-12.6-9.6-12.6c-7.3,0-9.5,6.3-9.5,12.6
			C306.3,68.2,308.5,74.5,315.8,74.5z"/>
		<path d="M153.4,41.2c-8.4,0-17.1,2.8-18.4,11.9c-0.1,0.7,0.4,1.3,1.1,1.3h8.6c0.5,0,1-0.4,1.1-0.9
			c0.7-3.6,3.2-5,7-5c3.8,0,7,0.7,7,5.3c0,4.4-6.2,4.2-12.8,5.2c-6.7,0.9-13.4,3-13.4,11.9c0,8.1,5.9,11.8,13.4,11.8
			c3.8,0,7.8-0.8,11-3c0.8-0.5,1.8,0,1.8,0.9l0,0c0,0.6,0.5,1.1,1.1,1.1h8.5c0.6,0,1.1-0.5,1.1-1.1V52.3
			C170.7,42.9,161.3,41.2,153.4,41.2z M159.9,66.3c0,2.4-0.3,9.1-8.7,9.1c-3.5,0-6.6-1-6.6-5c0-4,3-5.1,6.4-5.8
			c2.6-0.5,5.4-0.6,7.4-1.4c0.7-0.3,1.5,0.3,1.5,1.1V66.3z"/>
	</g>
</g>
</svg>
